<svg width="1243" height="587" viewBox="0 0 1243 587" fill="none" xmlns="http://www.w3.org/2000/svg">
  <style>
    /* Retro Flicker Animation */
    @keyframes flicker {
      0% { opacity: 0.40; }
    12.5%{opacity:0.40}
    25%{opacity:0.50}
    37.5%{opacity:0.75}
    50%{opacity:1}
    62.5%{opacity:0.75}
    75%{opacity:0.50}
    87.5%{opacity:0.40}
    100% { opacity: 0.40; }
    }
    .retro-flicker {
      animation: flicker 3s infinite;
    }
  </style>

  <g filter="url(#filter0_d_18_9)">
    <path d="M51.4512 5.5H1233.33V573.5H9.5V60.5C9.50011 27.9216 30.9521 5.5001 51.4512 5.5Z" stroke="white" stroke-width="11" shape-rendering="crispEdges"/>
  </g>
  <path d="M893.881 152.025L615.175 151L317.924 149.906L247.498 40.6458L983.806 43.3554L893.881 152.025Z" fill="#D9D9D9" fill-opacity="0.12"/>
  <path d="M1168.51 177.5V452.766L1089.75 518.5H137.838L73.2225 452.795V177.5H1168.51Z" fill="#D9D9D9" stroke="white"/>

  <g >
    <g filter="url(#filter1_d_18_9)">
      <path d="M189.442 289.5C189.442 239.518 229.96 199 279.942 199H952.207C1002.19 199 1042.71 239.518 1042.71 289.5C1042.71 339.482 1002.19 380 952.207 380H279.942C229.96 380 189.442 339.482 189.442 289.5Z" fill="black"/>
      <path d="M279.942 199.5H952.207C1001.91 199.5 1042.21 239.794 1042.21 289.5C1042.21 339.206 1001.91 379.5 952.207 379.5H279.942C230.236 379.5 189.942 339.206 189.942 289.5C189.942 239.794 230.236 199.5 279.942 199.5Z" stroke="black"/>
    </g>
    <ellipse cx="286.736" cy="290" rx="68.1055" ry="69" fill="white"/>
    <ellipse cx="943.467" cy="290" rx="68.1055" ry="69" fill="white"/>
    <g class="retro-flicker" filter="url(#filter2_i_18_9)">
      <rect x="412.244" y="230" width="415.444" height="120" fill="#214315"/>
    </g>
    <g class="retro-flicker" filter="url(#filter3_i_18_9)">
      <path d="M477.85 272.364H484.157L498.987 308.585H499.498L514.328 272.364H520.634V316H515.691V282.847H515.265L501.629 316H496.856L483.22 282.847H482.793V316H477.85V272.364ZM530.547 316V283.273H535.405V288.216H535.746C536.343 286.597 537.422 285.283 538.985 284.274C540.547 283.266 542.309 282.761 544.269 282.761C544.638 282.761 545.1 282.769 545.654 282.783C546.208 282.797 546.627 282.818 546.911 282.847V287.96C546.741 287.918 546.35 287.854 545.739 287.769C545.143 287.669 544.51 287.619 543.843 287.619C542.252 287.619 540.831 287.953 539.581 288.621C538.346 289.274 537.366 290.183 536.641 291.348C535.931 292.499 535.576 293.813 535.576 295.29V316H530.547ZM577.161 316L567.19 283.273H572.474L579.548 308.33H579.889L586.877 283.273H592.247L599.15 308.244H599.491L606.565 283.273H611.849L601.877 316H596.934L589.775 290.858H589.264L582.105 316H577.161ZM623.525 296.313V316H618.497V272.364H623.525V288.386H623.951C624.718 286.696 625.869 285.354 627.403 284.359C628.951 283.351 631.011 282.847 633.582 282.847C635.812 282.847 637.765 283.294 639.441 284.189C641.117 285.07 642.417 286.426 643.34 288.259C644.278 290.077 644.747 292.392 644.747 295.205V316H639.718V295.546C639.718 292.946 639.043 290.936 637.694 289.516C636.359 288.081 634.505 287.364 632.133 287.364C630.485 287.364 629.008 287.712 627.701 288.408C626.409 289.104 625.386 290.119 624.633 291.455C623.894 292.79 623.525 294.409 623.525 296.313ZM653.946 316V283.273H658.974V316H653.946ZM656.503 277.818C655.523 277.818 654.677 277.484 653.967 276.817C653.271 276.149 652.923 275.347 652.923 274.409C652.923 273.472 653.271 272.669 653.967 272.002C654.677 271.334 655.523 271 656.503 271C657.483 271 658.321 271.334 659.017 272.002C659.727 272.669 660.082 273.472 660.082 274.409C660.082 275.347 659.727 276.149 659.017 276.817C658.321 277.484 657.483 277.818 656.503 277.818ZM682.417 283.273V287.534H665.457V283.273H682.417ZM670.4 275.432H675.428V306.625C675.428 308.046 675.634 309.111 676.046 309.821C676.472 310.517 677.012 310.986 677.666 311.227C678.333 311.455 679.036 311.568 679.775 311.568C680.329 311.568 680.784 311.54 681.139 311.483C681.494 311.412 681.778 311.355 681.991 311.313L683.014 315.83C682.673 315.958 682.197 316.085 681.586 316.213C680.975 316.355 680.201 316.426 679.264 316.426C677.843 316.426 676.451 316.121 675.088 315.51C673.738 314.899 672.616 313.969 671.721 312.719C670.84 311.469 670.4 309.892 670.4 307.989V275.432ZM703.351 316.682C700.198 316.682 697.477 315.986 695.191 314.594C692.918 313.188 691.164 311.227 689.928 308.713C688.706 306.185 688.095 303.244 688.095 299.892C688.095 296.54 688.706 293.585 689.928 291.029C691.164 288.458 692.882 286.455 695.084 285.02C697.3 283.571 699.885 282.847 702.84 282.847C704.544 282.847 706.227 283.131 707.889 283.699C709.551 284.267 711.064 285.19 712.428 286.469C713.791 287.733 714.878 289.409 715.688 291.497C716.497 293.585 716.902 296.156 716.902 299.21V301.341H691.675V296.994H711.789C711.789 295.148 711.419 293.5 710.681 292.051C709.956 290.602 708.919 289.459 707.57 288.621C706.235 287.783 704.658 287.364 702.84 287.364C700.837 287.364 699.104 287.861 697.641 288.855C696.192 289.835 695.077 291.114 694.296 292.69C693.514 294.267 693.124 295.958 693.124 297.761V300.659C693.124 303.131 693.55 305.226 694.402 306.945C695.269 308.649 696.469 309.949 698.003 310.844C699.537 311.725 701.32 312.165 703.351 312.165C704.672 312.165 705.865 311.98 706.931 311.611C708.01 311.227 708.941 310.659 709.722 309.906C710.503 309.139 711.107 308.188 711.533 307.051L716.391 308.415C715.879 310.063 715.02 311.511 713.813 312.761C712.605 313.997 711.114 314.963 709.338 315.659C707.563 316.341 705.567 316.682 703.351 316.682Z" fill="#8CEF40"/>
    </g>
    <path d="M270.741 335L272.374 298.734L241.78 318.414L232.413 302.086L264.897 285.5L232.413 268.914L241.78 252.586L272.374 272.266L270.741 236H289.39L287.757 272.266L318.351 252.586L327.718 268.914L295.233 285.5L327.718 302.086L318.351 318.414L287.757 298.734L289.39 335H270.741Z" fill="black"/>
    <path d="M927.424 335L929.057 298.734L898.463 318.414L889.096 302.086L921.581 285.5L889.096 268.914L898.463 252.586L929.057 272.266L927.424 236H946.073L944.44 272.266L975.034 252.586L984.401 268.914L951.917 285.5L984.401 302.086L975.034 318.414L944.44 298.734L946.073 335H927.424Z" fill="#060606"/>
  </g>

  <path d="M579.929 440.409C578.088 440.409 576.503 439.975 575.173 439.105C573.844 438.236 572.821 437.038 572.105 435.513C571.389 433.987 571.031 432.244 571.031 430.284C571.031 428.29 571.398 426.53 572.131 425.004C572.872 423.47 573.903 422.273 575.225 421.412C576.554 420.543 578.105 420.108 579.878 420.108C581.259 420.108 582.503 420.364 583.611 420.875C584.719 421.386 585.627 422.102 586.334 423.023C587.041 423.943 587.48 425.017 587.651 426.244H584.634C584.403 425.35 583.892 424.557 583.1 423.867C582.315 423.168 581.259 422.818 579.929 422.818C578.753 422.818 577.722 423.125 576.835 423.739C575.957 424.344 575.271 425.2 574.777 426.308C574.291 427.408 574.048 428.699 574.048 430.182C574.048 431.699 574.287 433.02 574.764 434.145C575.25 435.27 575.932 436.144 576.81 436.766C577.696 437.388 578.736 437.699 579.929 437.699C580.713 437.699 581.425 437.563 582.064 437.29C582.703 437.017 583.244 436.625 583.688 436.114C584.131 435.602 584.446 434.989 584.634 434.273H587.651C587.48 435.432 587.058 436.476 586.385 437.405C585.72 438.325 584.838 439.058 583.739 439.604C582.648 440.141 581.378 440.409 579.929 440.409ZM597.84 440.46C596.595 440.46 595.466 440.226 594.452 439.757C593.438 439.28 592.632 438.594 592.036 437.699C591.439 436.796 591.141 435.705 591.141 434.426C591.141 433.301 591.362 432.389 591.805 431.69C592.249 430.983 592.841 430.429 593.582 430.029C594.324 429.628 595.142 429.33 596.037 429.134C596.94 428.929 597.848 428.767 598.76 428.648C599.953 428.494 600.921 428.379 601.662 428.303C602.412 428.217 602.957 428.077 603.298 427.881C603.648 427.685 603.823 427.344 603.823 426.858V426.756C603.823 425.494 603.477 424.514 602.787 423.815C602.105 423.117 601.07 422.767 599.68 422.767C598.24 422.767 597.111 423.083 596.293 423.713C595.475 424.344 594.899 425.017 594.567 425.733L591.703 424.71C592.215 423.517 592.896 422.588 593.749 421.923C594.609 421.25 595.547 420.781 596.561 420.517C597.584 420.244 598.59 420.108 599.578 420.108C600.209 420.108 600.933 420.185 601.752 420.338C602.578 420.483 603.375 420.786 604.142 421.246C604.918 421.706 605.561 422.401 606.073 423.33C606.584 424.259 606.84 425.503 606.84 427.063V440H603.823V437.341H603.669C603.465 437.767 603.124 438.223 602.646 438.709C602.169 439.195 601.534 439.608 600.742 439.949C599.949 440.29 598.982 440.46 597.84 440.46ZM598.3 437.75C599.493 437.75 600.499 437.516 601.317 437.047C602.144 436.578 602.766 435.973 603.183 435.232C603.609 434.49 603.823 433.71 603.823 432.892V430.131C603.695 430.284 603.413 430.425 602.979 430.553C602.553 430.672 602.058 430.779 601.496 430.872C600.942 430.958 600.401 431.034 599.872 431.102C599.352 431.162 598.93 431.213 598.607 431.256C597.823 431.358 597.09 431.524 596.408 431.754C595.734 431.976 595.189 432.313 594.771 432.764C594.362 433.208 594.158 433.813 594.158 434.58C594.158 435.628 594.546 436.421 595.321 436.958C596.105 437.486 597.098 437.75 598.3 437.75ZM620.886 420.364V422.921H610.71V420.364H620.886ZM613.676 415.659H616.693V434.375C616.693 435.227 616.816 435.867 617.064 436.293C617.319 436.71 617.643 436.992 618.035 437.136C618.436 437.273 618.858 437.341 619.301 437.341C619.633 437.341 619.906 437.324 620.119 437.29C620.332 437.247 620.503 437.213 620.63 437.188L621.244 439.898C621.04 439.975 620.754 440.051 620.388 440.128C620.021 440.213 619.557 440.256 618.994 440.256C618.142 440.256 617.307 440.073 616.488 439.706C615.679 439.34 615.005 438.781 614.468 438.031C613.94 437.281 613.676 436.335 613.676 435.193V415.659ZM633.191 440.409C631.35 440.409 629.765 439.975 628.435 439.105C627.106 438.236 626.083 437.038 625.367 435.513C624.651 433.987 624.293 432.244 624.293 430.284C624.293 428.29 624.66 426.53 625.392 425.004C626.134 423.47 627.165 422.273 628.486 421.412C629.816 420.543 631.367 420.108 633.14 420.108C634.52 420.108 635.765 420.364 636.873 420.875C637.981 421.386 638.888 422.102 639.596 423.023C640.303 423.943 640.742 425.017 640.912 426.244H637.895C637.665 425.35 637.154 424.557 636.361 423.867C635.577 423.168 634.52 422.818 633.191 422.818C632.015 422.818 630.983 423.125 630.097 423.739C629.219 424.344 628.533 425.2 628.039 426.308C627.553 427.408 627.31 428.699 627.31 430.182C627.31 431.699 627.549 433.02 628.026 434.145C628.512 435.27 629.194 436.144 630.071 436.766C630.958 437.388 631.998 437.699 633.191 437.699C633.975 437.699 634.687 437.563 635.326 437.29C635.965 437.017 636.506 436.625 636.949 436.114C637.392 435.602 637.708 434.989 637.895 434.273H640.912C640.742 435.432 640.32 436.476 639.647 437.405C638.982 438.325 638.1 439.058 637 439.604C635.91 440.141 634.64 440.409 633.191 440.409ZM648.34 428.188V440H645.323V413.818H648.34V423.432H648.596C649.056 422.418 649.746 421.612 650.667 421.016C651.596 420.411 652.831 420.108 654.374 420.108C655.712 420.108 656.884 420.377 657.89 420.913C658.895 421.442 659.675 422.256 660.229 423.355C660.792 424.446 661.073 425.835 661.073 427.523V440H658.056V427.727C658.056 426.168 657.651 424.962 656.841 424.109C656.04 423.249 654.928 422.818 653.505 422.818C652.516 422.818 651.63 423.027 650.846 423.445C650.07 423.862 649.456 424.472 649.005 425.273C648.562 426.074 648.34 427.046 648.34 428.188ZM685.257 420.364V422.921H675.081V420.364H685.257ZM678.047 415.659H681.064V434.375C681.064 435.227 681.188 435.867 681.435 436.293C681.69 436.71 682.014 436.992 682.406 437.136C682.807 437.273 683.229 437.341 683.672 437.341C684.004 437.341 684.277 437.324 684.49 437.29C684.703 437.247 684.874 437.213 685.002 437.188L685.615 439.898C685.411 439.975 685.125 440.051 684.759 440.128C684.392 440.213 683.928 440.256 683.365 440.256C682.513 440.256 681.678 440.073 680.859 439.706C680.05 439.34 679.377 438.781 678.84 438.031C678.311 437.281 678.047 436.335 678.047 435.193V415.659ZM693.234 428.188V440H690.217V413.818H693.234V423.432H693.49C693.95 422.418 694.641 421.612 695.561 421.016C696.49 420.411 697.726 420.108 699.269 420.108C700.607 420.108 701.778 420.377 702.784 420.913C703.79 421.442 704.57 422.256 705.124 423.355C705.686 424.446 705.967 425.835 705.967 427.523V440H702.95V427.727C702.95 426.168 702.546 424.962 701.736 424.109C700.935 423.249 699.823 422.818 698.399 422.818C697.411 422.818 696.524 423.027 695.74 423.445C694.965 423.862 694.351 424.472 693.899 425.273C693.456 426.074 693.234 427.046 693.234 428.188ZM719.72 440.409C717.828 440.409 716.196 439.992 714.824 439.156C713.46 438.313 712.407 437.136 711.666 435.628C710.933 434.111 710.566 432.347 710.566 430.335C710.566 428.324 710.933 426.551 711.666 425.017C712.407 423.475 713.439 422.273 714.76 421.412C716.089 420.543 717.64 420.108 719.413 420.108C720.436 420.108 721.446 420.279 722.443 420.619C723.44 420.96 724.348 421.514 725.166 422.281C725.984 423.04 726.636 424.046 727.122 425.298C727.608 426.551 727.851 428.094 727.851 429.926V431.205H712.714V428.597H724.782C724.782 427.489 724.561 426.5 724.118 425.631C723.683 424.761 723.061 424.075 722.251 423.573C721.45 423.07 720.504 422.818 719.413 422.818C718.211 422.818 717.172 423.117 716.294 423.713C715.424 424.301 714.755 425.068 714.287 426.014C713.818 426.96 713.584 427.975 713.584 429.057V430.796C713.584 432.279 713.839 433.536 714.351 434.567C714.87 435.59 715.591 436.369 716.511 436.906C717.432 437.435 718.501 437.699 719.72 437.699C720.513 437.699 721.228 437.588 721.868 437.367C722.515 437.136 723.074 436.796 723.542 436.344C724.011 435.884 724.373 435.313 724.629 434.631L727.544 435.449C727.237 436.438 726.721 437.307 725.997 438.057C725.272 438.798 724.378 439.378 723.312 439.796C722.247 440.205 721.049 440.409 719.72 440.409ZM750.542 440.409C748.77 440.409 747.214 439.987 745.876 439.144C744.547 438.3 743.507 437.119 742.757 435.602C742.015 434.085 741.645 432.313 741.645 430.284C741.645 428.239 742.015 426.453 742.757 424.928C743.507 423.402 744.547 422.217 745.876 421.374C747.214 420.53 748.77 420.108 750.542 420.108C752.315 420.108 753.866 420.53 755.196 421.374C756.534 422.217 757.574 423.402 758.315 424.928C759.065 426.453 759.44 428.239 759.44 430.284C759.44 432.313 759.065 434.085 758.315 435.602C757.574 437.119 756.534 438.3 755.196 439.144C753.866 439.987 752.315 440.409 750.542 440.409ZM750.542 437.699C751.889 437.699 752.997 437.354 753.866 436.663C754.736 435.973 755.379 435.065 755.797 433.94C756.214 432.815 756.423 431.597 756.423 430.284C756.423 428.972 756.214 427.749 755.797 426.615C755.379 425.482 754.736 424.565 753.866 423.867C752.997 423.168 751.889 422.818 750.542 422.818C749.196 422.818 748.088 423.168 747.218 423.867C746.349 424.565 745.706 425.482 745.288 426.615C744.87 427.749 744.662 428.972 744.662 430.284C744.662 431.597 744.87 432.815 745.288 433.94C745.706 435.065 746.349 435.973 747.218 436.663C748.088 437.354 749.196 437.699 750.542 437.699ZM767.063 428.188V440H764.046V420.364H766.96V423.432H767.216C767.676 422.435 768.375 421.634 769.313 421.029C770.25 420.415 771.46 420.108 772.943 420.108C774.273 420.108 775.436 420.381 776.433 420.926C777.43 421.463 778.206 422.281 778.76 423.381C779.314 424.472 779.591 425.852 779.591 427.523V440H776.574V427.727C776.574 426.185 776.173 424.983 775.372 424.122C774.571 423.253 773.472 422.818 772.074 422.818C771.111 422.818 770.25 423.027 769.492 423.445C768.742 423.862 768.149 424.472 767.715 425.273C767.28 426.074 767.063 427.046 767.063 428.188ZM793.337 440.409C791.445 440.409 789.813 439.992 788.441 439.156C787.077 438.313 786.025 437.136 785.283 435.628C784.55 434.111 784.184 432.347 784.184 430.335C784.184 428.324 784.55 426.551 785.283 425.017C786.025 423.475 787.056 422.273 788.377 421.412C789.706 420.543 791.258 420.108 793.03 420.108C794.053 420.108 795.063 420.279 796.06 420.619C797.057 420.96 797.965 421.514 798.783 422.281C799.601 423.04 800.253 424.046 800.739 425.298C801.225 426.551 801.468 428.094 801.468 429.926V431.205H786.331V428.597H798.4C798.4 427.489 798.178 426.5 797.735 425.631C797.3 424.761 796.678 424.075 795.868 423.573C795.067 423.07 794.121 422.818 793.03 422.818C791.829 422.818 790.789 423.117 789.911 423.713C789.042 424.301 788.373 425.068 787.904 426.014C787.435 426.96 787.201 427.975 787.201 429.057V430.796C787.201 432.279 787.456 433.536 787.968 434.567C788.488 435.59 789.208 436.369 790.128 436.906C791.049 437.435 792.118 437.699 793.337 437.699C794.13 437.699 794.846 437.588 795.485 437.367C796.133 437.136 796.691 436.796 797.16 436.344C797.628 435.884 797.991 435.313 798.246 434.631L801.161 435.449C800.854 436.438 800.339 437.307 799.614 438.057C798.89 438.798 797.995 439.378 796.929 439.796C795.864 440.205 794.667 440.409 793.337 440.409ZM820.631 440L814.648 420.364H817.819L822.063 435.398H822.267L826.461 420.364H829.682L833.824 435.347H834.029L838.273 420.364H841.444L835.461 440H832.495L828.199 424.915H827.892L823.597 440H820.631ZM845.432 440V420.364H848.449V440H845.432ZM846.966 417.091C846.378 417.091 845.871 416.891 845.445 416.49C845.027 416.09 844.819 415.608 844.819 415.046C844.819 414.483 845.027 414.002 845.445 413.601C845.871 413.2 846.378 413 846.966 413C847.554 413 848.057 413.2 848.475 413.601C848.901 414.002 849.114 414.483 849.114 415.046C849.114 415.608 848.901 416.09 848.475 416.49C848.057 416.891 847.554 417.091 846.966 417.091ZM862.515 420.364V422.921H852.339V420.364H862.515ZM855.305 415.659H858.322V434.375C858.322 435.227 858.445 435.867 858.693 436.293C858.948 436.71 859.272 436.992 859.664 437.136C860.065 437.273 860.487 437.341 860.93 437.341C861.262 437.341 861.535 437.324 861.748 437.29C861.961 437.247 862.131 437.213 862.259 437.188L862.873 439.898C862.668 439.975 862.383 440.051 862.016 440.128C861.65 440.213 861.185 440.256 860.623 440.256C859.771 440.256 858.935 440.073 858.117 439.706C857.308 439.34 856.634 438.781 856.097 438.031C855.569 437.281 855.305 436.335 855.305 435.193V415.659ZM870.492 428.188V440H867.475V413.818H870.492V423.432H870.748C871.208 422.418 871.899 421.612 872.819 421.016C873.748 420.411 874.984 420.108 876.526 420.108C877.864 420.108 879.036 420.377 880.042 420.913C881.048 421.442 881.828 422.256 882.381 423.355C882.944 424.446 883.225 425.835 883.225 427.523V440H880.208V427.727C880.208 426.168 879.803 424.962 878.994 424.109C878.193 423.249 877.08 422.818 875.657 422.818C874.668 422.818 873.782 423.027 872.998 423.445C872.222 423.862 871.609 424.472 871.157 425.273C870.714 426.074 870.492 427.046 870.492 428.188ZM907.41 420.364V422.921H897.233V420.364H907.41ZM900.199 415.659H903.216V434.375C903.216 435.227 903.34 435.867 903.587 436.293C903.843 436.71 904.167 436.992 904.559 437.136C904.959 437.273 905.381 437.341 905.824 437.341C906.157 437.341 906.429 437.324 906.642 437.29C906.856 437.247 907.026 437.213 907.154 437.188L907.767 439.898C907.563 439.975 907.277 440.051 906.911 440.128C906.544 440.213 906.08 440.256 905.517 440.256C904.665 440.256 903.83 440.073 903.012 439.706C902.202 439.34 901.529 438.781 900.992 438.031C900.464 437.281 900.199 436.335 900.199 435.193V415.659ZM915.387 428.188V440H912.37V413.818H915.387V423.432H915.642C916.103 422.418 916.793 421.612 917.714 421.016C918.642 420.411 919.878 420.108 921.421 420.108C922.759 420.108 923.931 420.377 924.937 420.913C925.942 421.442 926.722 422.256 927.276 423.355C927.839 424.446 928.12 425.835 928.12 427.523V440H925.103V427.727C925.103 426.168 924.698 424.962 923.888 424.109C923.087 423.249 921.975 422.818 920.552 422.818C919.563 422.818 918.677 423.027 917.892 423.445C917.117 423.862 916.503 424.472 916.052 425.273C915.608 426.074 915.387 427.046 915.387 428.188ZM941.872 440.409C939.98 440.409 938.348 439.992 936.976 439.156C935.612 438.313 934.56 437.136 933.818 435.628C933.085 434.111 932.719 432.347 932.719 430.335C932.719 428.324 933.085 426.551 933.818 425.017C934.56 423.475 935.591 422.273 936.912 421.412C938.242 420.543 939.793 420.108 941.565 420.108C942.588 420.108 943.598 420.279 944.595 420.619C945.592 420.96 946.5 421.514 947.318 422.281C948.136 423.04 948.788 424.046 949.274 425.298C949.76 426.551 950.003 428.094 950.003 429.926V431.205H934.867V428.597H946.935C946.935 427.489 946.713 426.5 946.27 425.631C945.835 424.761 945.213 424.075 944.403 423.573C943.602 423.07 942.656 422.818 941.565 422.818C940.364 422.818 939.324 423.117 938.446 423.713C937.577 424.301 936.908 425.068 936.439 426.014C935.97 426.96 935.736 427.975 935.736 429.057V430.796C935.736 432.279 935.992 433.536 936.503 434.567C937.023 435.59 937.743 436.369 938.663 436.906C939.584 437.435 940.653 437.699 941.872 437.699C942.665 437.699 943.381 437.588 944.02 437.367C944.668 437.136 945.226 436.796 945.695 436.344C946.163 435.884 946.526 435.313 946.781 434.631L949.696 435.449C949.389 436.438 948.874 437.307 948.149 438.057C947.425 438.798 946.53 439.378 945.465 439.796C944.399 440.205 943.202 440.409 941.872 440.409ZM972.132 440.409C970.496 440.409 969.051 439.996 967.798 439.169C966.546 438.334 965.565 437.158 964.858 435.641C964.151 434.115 963.797 432.313 963.797 430.233C963.797 428.171 964.151 426.381 964.858 424.864C965.565 423.347 966.55 422.175 967.811 421.348C969.073 420.521 970.53 420.108 972.183 420.108C973.462 420.108 974.472 420.321 975.213 420.747C975.963 421.165 976.534 421.642 976.926 422.179C977.327 422.708 977.638 423.142 977.859 423.483H978.115V413.818H981.132V440H978.217V436.983H977.859C977.638 437.341 977.323 437.793 976.913 438.338C976.504 438.875 975.921 439.357 975.162 439.783C974.403 440.2 973.394 440.409 972.132 440.409ZM972.541 437.699C973.752 437.699 974.774 437.384 975.609 436.753C976.445 436.114 977.08 435.232 977.514 434.107C977.949 432.973 978.166 431.665 978.166 430.182C978.166 428.716 977.953 427.433 977.527 426.334C977.101 425.226 976.47 424.365 975.635 423.752C974.8 423.129 973.769 422.818 972.541 422.818C971.263 422.818 970.198 423.146 969.345 423.803C968.502 424.45 967.867 425.333 967.44 426.449C967.023 427.557 966.814 428.801 966.814 430.182C966.814 431.58 967.027 432.85 967.453 433.992C967.888 435.125 968.527 436.029 969.371 436.702C970.223 437.367 971.28 437.699 972.541 437.699ZM987.077 440V420.364H990.094V440H987.077ZM988.611 417.091C988.023 417.091 987.516 416.891 987.09 416.49C986.672 416.09 986.463 415.608 986.463 415.046C986.463 414.483 986.672 414.002 987.09 413.601C987.516 413.2 988.023 413 988.611 413C989.199 413 989.702 413.2 990.119 413.601C990.546 414.002 990.759 414.483 990.759 415.046C990.759 415.608 990.546 416.09 990.119 416.49C989.702 416.891 989.199 417.091 988.611 417.091ZM1004.36 420.364V422.921H993.779V420.364H1004.36ZM996.949 440V417.654C996.949 416.529 997.214 415.591 997.742 414.841C998.27 414.091 998.956 413.529 999.8 413.154C1000.64 412.779 1001.53 412.591 1002.47 412.591C1003.21 412.591 1003.82 412.651 1004.29 412.77C1004.76 412.889 1005.11 413 1005.34 413.102L1004.47 415.71C1004.31 415.659 1004.1 415.595 1003.83 415.519C1003.56 415.442 1003.21 415.404 1002.78 415.404C1001.78 415.404 1001.06 415.655 1000.62 416.158C1000.18 416.661 999.966 417.398 999.966 418.369V440H996.949ZM1017.34 420.364V422.921H1006.75V420.364H1017.34ZM1009.92 440V417.654C1009.92 416.529 1010.19 415.591 1010.71 414.841C1011.24 414.091 1011.93 413.529 1012.77 413.154C1013.62 412.779 1014.51 412.591 1015.44 412.591C1016.19 412.591 1016.79 412.651 1017.26 412.77C1017.73 412.889 1018.08 413 1018.31 413.102L1017.44 415.71C1017.29 415.659 1017.07 415.595 1016.8 415.519C1016.54 415.442 1016.19 415.404 1015.75 415.404C1014.75 415.404 1014.03 415.655 1013.59 416.158C1013.16 416.661 1012.94 417.398 1012.94 418.369V440H1009.92ZM1028.99 440.409C1027.1 440.409 1025.47 439.992 1024.09 439.156C1022.73 438.313 1021.68 437.136 1020.94 435.628C1020.2 434.111 1019.84 432.347 1019.84 430.335C1019.84 428.324 1020.2 426.551 1020.94 425.017C1021.68 423.475 1022.71 422.273 1024.03 421.412C1025.36 420.543 1026.91 420.108 1028.68 420.108C1029.71 420.108 1030.72 420.279 1031.71 420.619C1032.71 420.96 1033.62 421.514 1034.44 422.281C1035.25 423.04 1035.91 424.046 1036.39 425.298C1036.88 426.551 1037.12 428.094 1037.12 429.926V431.205H1021.98V428.597H1034.05C1034.05 427.489 1033.83 426.5 1033.39 425.631C1032.95 424.761 1032.33 424.075 1031.52 423.573C1030.72 423.07 1029.77 422.818 1028.68 422.818C1027.48 422.818 1026.44 423.117 1025.56 423.713C1024.69 424.301 1024.02 425.068 1023.56 426.014C1023.09 426.96 1022.85 427.975 1022.85 429.057V430.796C1022.85 432.279 1023.11 433.536 1023.62 434.567C1024.14 435.59 1024.86 436.369 1025.78 436.906C1026.7 437.435 1027.77 437.699 1028.99 437.699C1029.78 437.699 1030.5 437.588 1031.14 437.367C1031.78 437.136 1032.34 436.796 1032.81 436.344C1033.28 435.884 1033.64 435.313 1033.9 434.631L1036.81 435.449C1036.51 436.438 1035.99 437.307 1035.27 438.057C1034.54 438.798 1033.65 439.378 1032.58 439.796C1031.52 440.205 1030.32 440.409 1028.99 440.409ZM1041.71 440V420.364H1044.62V423.33H1044.83C1045.19 422.358 1045.83 421.57 1046.77 420.965C1047.71 420.359 1048.77 420.057 1049.94 420.057C1050.16 420.057 1050.44 420.061 1050.77 420.07C1051.11 420.078 1051.36 420.091 1051.53 420.108V423.176C1051.43 423.151 1051.19 423.112 1050.82 423.061C1050.47 423.002 1050.09 422.972 1049.69 422.972C1048.73 422.972 1047.88 423.172 1047.13 423.573C1046.39 423.965 1045.8 424.51 1045.37 425.209C1044.94 425.899 1044.73 426.688 1044.73 427.574V440H1041.71ZM1062.74 440.409C1060.85 440.409 1059.22 439.992 1057.84 439.156C1056.48 438.313 1055.43 437.136 1054.69 435.628C1053.95 434.111 1053.59 432.347 1053.59 430.335C1053.59 428.324 1053.95 426.551 1054.69 425.017C1055.43 423.475 1056.46 422.273 1057.78 421.412C1059.11 420.543 1060.66 420.108 1062.43 420.108C1063.46 420.108 1064.47 420.279 1065.46 420.619C1066.46 420.96 1067.37 421.514 1068.19 422.281C1069 423.04 1069.66 424.046 1070.14 425.298C1070.63 426.551 1070.87 428.094 1070.87 429.926V431.205H1055.73V428.597H1067.8C1067.8 427.489 1067.58 426.5 1067.14 425.631C1066.7 424.761 1066.08 424.075 1065.27 423.573C1064.47 423.07 1063.52 422.818 1062.43 422.818C1061.23 422.818 1060.19 423.117 1059.31 423.713C1058.44 424.301 1057.77 425.068 1057.31 426.014C1056.84 426.96 1056.6 427.975 1056.6 429.057V430.796C1056.6 432.279 1056.86 433.536 1057.37 434.567C1057.89 435.59 1058.61 436.369 1059.53 436.906C1060.45 437.435 1061.52 437.699 1062.74 437.699C1063.53 437.699 1064.25 437.588 1064.89 437.367C1065.53 437.136 1066.09 436.796 1066.56 436.344C1067.03 435.884 1067.39 435.313 1067.65 434.631L1070.56 435.449C1070.26 436.438 1069.74 437.307 1069.02 438.057C1068.29 438.798 1067.4 439.378 1066.33 439.796C1065.27 440.205 1064.07 440.409 1062.74 440.409ZM1078.48 428.188V440H1075.46V420.364H1078.37V423.432H1078.63C1079.09 422.435 1079.79 421.634 1080.73 421.029C1081.66 420.415 1082.87 420.108 1084.36 420.108C1085.69 420.108 1086.85 420.381 1087.85 420.926C1088.84 421.463 1089.62 422.281 1090.17 423.381C1090.73 424.472 1091.01 425.852 1091.01 427.523V440H1087.99V427.727C1087.99 426.185 1087.59 424.983 1086.79 424.122C1085.99 423.253 1084.89 422.818 1083.49 422.818C1082.52 422.818 1081.66 423.027 1080.91 423.445C1080.16 423.862 1079.56 424.472 1079.13 425.273C1078.69 426.074 1078.48 427.046 1078.48 428.188ZM1105.06 420.364V422.921H1094.88V420.364H1105.06ZM1097.85 415.659H1100.86V434.375C1100.86 435.227 1100.99 435.867 1101.24 436.293C1101.49 436.71 1101.82 436.992 1102.21 437.136C1102.61 437.273 1103.03 437.341 1103.47 437.341C1103.81 437.341 1104.08 437.324 1104.29 437.29C1104.5 437.247 1104.67 437.213 1104.8 437.188L1105.42 439.898C1105.21 439.975 1104.93 440.051 1104.56 440.128C1104.19 440.213 1103.73 440.256 1103.17 440.256C1102.31 440.256 1101.48 440.073 1100.66 439.706C1099.85 439.34 1099.18 438.781 1098.64 438.031C1098.11 437.281 1097.85 436.335 1097.85 435.193V415.659ZM1028.83 484L1022.84 464.364H1026.01L1030.26 479.398H1030.46L1034.66 464.364H1037.88L1042.02 479.347H1042.22L1046.47 464.364H1049.64L1043.66 484H1040.69L1036.39 468.915H1036.09L1031.79 484H1028.83ZM1060.94 484.409C1059.16 484.409 1057.61 483.987 1056.27 483.144C1054.94 482.3 1053.9 481.119 1053.15 479.602C1052.41 478.085 1052.04 476.313 1052.04 474.284C1052.04 472.239 1052.41 470.453 1053.15 468.928C1053.9 467.402 1054.94 466.217 1056.27 465.374C1057.61 464.53 1059.16 464.108 1060.94 464.108C1062.71 464.108 1064.26 464.53 1065.59 465.374C1066.93 466.217 1067.97 467.402 1068.71 468.928C1069.46 470.453 1069.83 472.239 1069.83 474.284C1069.83 476.313 1069.46 478.085 1068.71 479.602C1067.97 481.119 1066.93 482.3 1065.59 483.144C1064.26 483.987 1062.71 484.409 1060.94 484.409ZM1060.94 481.699C1062.28 481.699 1063.39 481.354 1064.26 480.663C1065.13 479.973 1065.77 479.065 1066.19 477.94C1066.61 476.815 1066.82 475.597 1066.82 474.284C1066.82 472.972 1066.61 471.749 1066.19 470.615C1065.77 469.482 1065.13 468.565 1064.26 467.867C1063.39 467.168 1062.28 466.818 1060.94 466.818C1059.59 466.818 1058.48 467.168 1057.61 467.867C1056.74 468.565 1056.1 469.482 1055.68 470.615C1055.27 471.749 1055.06 472.972 1055.06 474.284C1055.06 475.597 1055.27 476.815 1055.68 477.94C1056.1 479.065 1056.74 479.973 1057.61 480.663C1058.48 481.354 1059.59 481.699 1060.94 481.699ZM1074.44 484V464.364H1077.35V467.33H1077.56C1077.92 466.358 1078.57 465.57 1079.5 464.965C1080.44 464.359 1081.5 464.057 1082.67 464.057C1082.89 464.057 1083.17 464.061 1083.5 464.07C1083.84 464.078 1084.09 464.091 1084.26 464.108V467.176C1084.16 467.151 1083.92 467.112 1083.56 467.061C1083.2 467.002 1082.82 466.972 1082.42 466.972C1081.46 466.972 1080.61 467.172 1079.86 467.573C1079.12 467.965 1078.53 468.51 1078.1 469.209C1077.67 469.899 1077.46 470.688 1077.46 471.574V484H1074.44ZM1094.65 484.409C1093.02 484.409 1091.57 483.996 1090.32 483.169C1089.07 482.334 1088.08 481.158 1087.38 479.641C1086.67 478.115 1086.32 476.313 1086.32 474.233C1086.32 472.171 1086.67 470.381 1087.38 468.864C1088.08 467.347 1089.07 466.175 1090.33 465.348C1091.59 464.521 1093.05 464.108 1094.7 464.108C1095.98 464.108 1096.99 464.321 1097.73 464.747C1098.48 465.165 1099.05 465.642 1099.45 466.179C1099.85 466.708 1100.16 467.142 1100.38 467.483H1100.63V457.818H1103.65V484H1100.74V480.983H1100.38C1100.16 481.341 1099.84 481.793 1099.43 482.338C1099.02 482.875 1098.44 483.357 1097.68 483.783C1096.92 484.2 1095.91 484.409 1094.65 484.409ZM1095.06 481.699C1096.27 481.699 1097.29 481.384 1098.13 480.753C1098.96 480.114 1099.6 479.232 1100.03 478.107C1100.47 476.973 1100.69 475.665 1100.69 474.182C1100.69 472.716 1100.47 471.433 1100.05 470.334C1099.62 469.226 1098.99 468.365 1098.15 467.752C1097.32 467.129 1096.29 466.818 1095.06 466.818C1093.78 466.818 1092.72 467.146 1091.86 467.803C1091.02 468.45 1090.39 469.333 1089.96 470.449C1089.54 471.557 1089.33 472.801 1089.33 474.182C1089.33 475.58 1089.55 476.85 1089.97 477.992C1090.41 479.125 1091.05 480.029 1091.89 480.702C1092.74 481.367 1093.8 481.699 1095.06 481.699Z" fill="black"/>
  <rect x="419.608" y="71.0001" width="35.9976" height="26" fill="black"/>
  <rect x="776.312" y="71.0001" width="35.9976" height="26" fill="black"/>
  <rect x="156.717" y="405" width="316.342" height="114" fill="black"/>
  <path d="M207.661 509L215.469 465.096H247.917L246.509 472.904H223.661L221.741 483.784H242.093L240.749 491.528H220.397L217.261 509H207.661ZM247.537 509L255.281 465.096H264.817L258.545 500.872H280.561L279.153 509H247.537ZM286.765 509L283.245 465.096H292.461L294.381 491.272C294.423 491.741 294.445 492.339 294.445 493.064C294.487 493.789 294.53 494.557 294.573 495.368C294.615 496.136 294.637 496.861 294.637 497.544H294.893C295.149 496.861 295.405 496.115 295.661 495.304C295.917 494.493 296.173 493.725 296.429 493C296.685 492.275 296.898 491.699 297.069 491.272L307.565 465.096H319.021L320.493 491.272C320.535 491.741 320.557 492.339 320.557 493.064C320.557 493.789 320.557 494.557 320.557 495.368C320.599 496.136 320.621 496.861 320.621 497.544H320.941C321.154 496.904 321.389 496.2 321.645 495.432C321.943 494.664 322.221 493.917 322.477 493.192C322.733 492.424 322.967 491.784 323.181 491.272L334.189 465.096H343.725L324.333 509H313.325L311.725 481.992C311.682 481.352 311.639 480.648 311.597 479.88C311.597 479.112 311.575 478.344 311.533 477.576C311.533 476.808 311.533 476.147 311.533 475.592H311.213C311.042 476.232 310.807 476.957 310.509 477.768C310.253 478.536 309.997 479.304 309.741 480.072C309.485 480.797 309.25 481.437 309.037 481.992L297.837 509H286.765ZM361.724 509.768C357.5 509.768 353.895 509.128 350.908 507.848C347.921 506.568 345.639 504.648 344.06 502.088C342.524 499.528 341.756 496.328 341.756 492.488C341.756 491.507 341.777 490.525 341.82 489.544C341.905 488.563 342.033 487.603 342.204 486.664C343.015 481.971 344.508 477.96 346.684 474.632C348.86 471.261 351.719 468.701 355.26 466.952C358.801 465.203 363.004 464.328 367.868 464.328C372.049 464.328 375.633 464.968 378.62 466.248C381.607 467.528 383.889 469.448 385.468 472.008C387.089 474.568 387.9 477.768 387.9 481.608C387.9 482.547 387.857 483.485 387.772 484.424C387.687 485.363 387.559 486.301 387.388 487.24C386.663 491.976 385.191 496.029 382.972 499.4C380.753 502.771 377.852 505.352 374.268 507.144C370.727 508.893 366.545 509.768 361.724 509.768ZM361.852 501.896C364.028 501.896 365.969 501.597 367.676 501C369.425 500.36 370.94 499.443 372.22 498.248C373.543 497.053 374.609 495.581 375.42 493.832C376.273 492.083 376.892 490.099 377.276 487.88C377.404 487.069 377.511 486.365 377.596 485.768C377.724 485.171 377.809 484.659 377.852 484.232C377.895 483.763 377.916 483.357 377.916 483.016C377.959 482.675 377.98 482.333 377.98 481.992C377.98 479.944 377.596 478.173 376.828 476.68C376.06 475.187 374.887 474.056 373.308 473.288C371.772 472.52 369.852 472.136 367.548 472.136C365.415 472.136 363.473 472.456 361.724 473.096C360.017 473.693 358.524 474.589 357.244 475.784C355.964 476.979 354.897 478.451 354.044 480.2C353.233 481.949 352.636 483.933 352.252 486.152C352.081 486.963 351.953 487.667 351.868 488.264C351.825 488.861 351.783 489.395 351.74 489.864C351.697 490.291 351.655 490.675 351.612 491.016C351.612 491.357 351.612 491.699 351.612 492.04C351.612 494.088 351.996 495.859 352.764 497.352C353.532 498.803 354.684 499.933 356.22 500.744C357.756 501.512 359.633 501.896 361.852 501.896Z" fill="white"/>
  <path d="M207.547 449V435.324H209.783L210.017 437.274H210.199C210.511 436.771 210.866 436.355 211.265 436.026C211.681 435.697 212.14 435.445 212.643 435.272C213.163 435.099 213.717 435.012 214.307 435.012C215.156 435.012 215.893 435.185 216.517 435.532C217.158 435.879 217.643 436.459 217.973 437.274H218.155C218.467 436.789 218.831 436.381 219.247 436.052C219.663 435.705 220.131 435.445 220.651 435.272C221.188 435.099 221.76 435.012 222.367 435.012C223.181 435.012 223.901 435.159 224.525 435.454C225.149 435.731 225.643 436.208 226.007 436.884C226.371 437.543 226.553 438.427 226.553 439.536V449H223.849V440.03C223.849 439.51 223.788 439.085 223.667 438.756C223.545 438.409 223.381 438.141 223.173 437.95C222.965 437.742 222.713 437.595 222.419 437.508C222.124 437.421 221.803 437.378 221.457 437.378C220.885 437.378 220.373 437.534 219.923 437.846C219.472 438.141 219.108 438.557 218.831 439.094C218.553 439.631 218.415 440.264 218.415 440.992V449H215.711V440.03C215.711 439.51 215.65 439.085 215.529 438.756C215.407 438.409 215.243 438.141 215.035 437.95C214.827 437.742 214.575 437.595 214.281 437.508C213.986 437.421 213.674 437.378 213.345 437.378C212.773 437.378 212.253 437.534 211.785 437.846C211.317 438.141 210.944 438.557 210.667 439.094C210.389 439.631 210.251 440.264 210.251 440.992V449H207.547ZM233.374 449.312C232.94 449.312 232.472 449.26 231.97 449.156C231.467 449.052 230.99 448.861 230.54 448.584C230.106 448.307 229.751 447.925 229.474 447.44C229.196 446.937 229.058 446.287 229.058 445.49C229.058 444.554 229.274 443.783 229.708 443.176C230.141 442.569 230.748 442.093 231.528 441.746C232.308 441.399 233.235 441.157 234.31 441.018C235.402 440.879 236.589 440.81 237.872 440.81V439.458C237.872 439.007 237.794 438.609 237.638 438.262C237.499 437.915 237.23 437.647 236.832 437.456C236.45 437.265 235.896 437.17 235.168 437.17C234.44 437.17 233.868 437.265 233.452 437.456C233.053 437.629 232.767 437.855 232.594 438.132C232.438 438.392 232.36 438.678 232.36 438.99V439.38H229.76C229.742 439.293 229.734 439.207 229.734 439.12C229.734 439.033 229.734 438.929 229.734 438.808C229.734 437.993 229.959 437.309 230.41 436.754C230.878 436.182 231.528 435.749 232.36 435.454C233.192 435.159 234.154 435.012 235.246 435.012C236.424 435.012 237.404 435.185 238.184 435.532C238.981 435.861 239.579 436.338 239.978 436.962C240.376 437.586 240.576 438.34 240.576 439.224V446.166C240.576 446.495 240.654 446.729 240.81 446.868C240.983 447.007 241.182 447.076 241.408 447.076H242.344V448.896C242.136 448.983 241.876 449.069 241.564 449.156C241.252 449.243 240.888 449.286 240.472 449.286C240.004 449.286 239.605 449.199 239.276 449.026C238.964 448.87 238.704 448.645 238.496 448.35C238.305 448.038 238.175 447.691 238.106 447.31H237.95C237.638 447.709 237.256 448.064 236.806 448.376C236.372 448.671 235.87 448.896 235.298 449.052C234.726 449.225 234.084 449.312 233.374 449.312ZM234.128 447.076C234.665 447.076 235.159 446.998 235.61 446.842C236.078 446.669 236.476 446.435 236.806 446.14C237.135 445.828 237.395 445.464 237.586 445.048C237.776 444.615 237.872 444.147 237.872 443.644V442.734C236.676 442.734 235.627 442.803 234.726 442.942C233.824 443.081 233.122 443.341 232.62 443.722C232.117 444.086 231.866 444.597 231.866 445.256C231.866 445.655 231.952 445.993 232.126 446.27C232.299 446.53 232.559 446.729 232.906 446.868C233.252 447.007 233.66 447.076 234.128 447.076ZM248.917 449.312C247.807 449.312 246.845 449.061 246.031 448.558C245.216 448.055 244.583 447.275 244.133 446.218C243.699 445.161 243.483 443.791 243.483 442.11C243.483 440.463 243.708 439.12 244.159 438.08C244.609 437.04 245.233 436.269 246.031 435.766C246.828 435.263 247.747 435.012 248.787 435.012C249.393 435.012 249.957 435.081 250.477 435.22C250.997 435.359 251.456 435.575 251.855 435.87C252.271 436.165 252.617 436.537 252.895 436.988H253.077V430.202H255.781V449H253.571L253.311 447.128H253.129C252.678 447.856 252.08 448.402 251.335 448.766C250.607 449.13 249.801 449.312 248.917 449.312ZM249.671 446.972C250.468 446.972 251.109 446.799 251.595 446.452C252.097 446.088 252.47 445.568 252.713 444.892C252.955 444.199 253.077 443.358 253.077 442.37V442.006C253.077 441.174 252.999 440.463 252.843 439.874C252.687 439.285 252.461 438.808 252.167 438.444C251.872 438.063 251.517 437.785 251.101 437.612C250.685 437.439 250.217 437.352 249.697 437.352C248.899 437.352 248.249 437.517 247.747 437.846C247.244 438.158 246.871 438.652 246.629 439.328C246.403 440.004 246.291 440.879 246.291 441.954V442.422C246.291 443.497 246.412 444.372 246.655 445.048C246.897 445.707 247.261 446.192 247.747 446.504C248.249 446.816 248.891 446.972 249.671 446.972ZM264.935 449.312C263.531 449.312 262.353 449.061 261.399 448.558C260.463 448.038 259.753 447.249 259.267 446.192C258.782 445.135 258.539 443.791 258.539 442.162C258.539 440.515 258.782 439.172 259.267 438.132C259.753 437.075 260.472 436.295 261.425 435.792C262.379 435.272 263.566 435.012 264.987 435.012C266.287 435.012 267.371 435.263 268.237 435.766C269.121 436.251 269.789 436.997 270.239 438.002C270.69 439.007 270.915 440.273 270.915 441.798V442.838H261.321C261.356 443.809 261.503 444.623 261.763 445.282C262.023 445.923 262.413 446.4 262.933 446.712C263.471 447.007 264.147 447.154 264.961 447.154C265.464 447.154 265.915 447.093 266.313 446.972C266.712 446.833 267.05 446.643 267.327 446.4C267.605 446.14 267.821 445.837 267.977 445.49C268.133 445.126 268.211 444.719 268.211 444.268H270.863C270.863 445.083 270.725 445.802 270.447 446.426C270.17 447.05 269.763 447.579 269.225 448.012C268.705 448.428 268.081 448.749 267.353 448.974C266.625 449.199 265.819 449.312 264.935 449.312ZM261.373 440.862H268.081C268.081 440.186 268.003 439.623 267.847 439.172C267.709 438.704 267.501 438.323 267.223 438.028C266.946 437.733 266.617 437.525 266.235 437.404C265.854 437.265 265.421 437.196 264.935 437.196C264.207 437.196 263.583 437.326 263.063 437.586C262.561 437.846 262.171 438.253 261.893 438.808C261.616 439.345 261.443 440.03 261.373 440.862ZM279.594 449V437.56H277.592V435.324H279.594V433.348C279.594 432.776 279.68 432.239 279.854 431.736C280.044 431.233 280.365 430.817 280.816 430.488C281.284 430.159 281.942 429.994 282.792 429.994C283.034 429.994 283.277 430.011 283.52 430.046C283.78 430.063 284.022 430.098 284.248 430.15C284.473 430.202 284.672 430.263 284.846 430.332V432.23H283.52C283.104 432.23 282.792 432.334 282.584 432.542C282.393 432.75 282.298 433.053 282.298 433.452V435.324H284.846V437.56H282.298V449H279.594ZM292.31 449.312C290.889 449.312 289.684 449.061 288.696 448.558C287.725 448.038 286.989 447.249 286.486 446.192C286.001 445.135 285.758 443.791 285.758 442.162C285.758 440.515 286.001 439.172 286.486 438.132C286.989 437.075 287.725 436.295 288.696 435.792C289.684 435.272 290.889 435.012 292.31 435.012C293.766 435.012 294.979 435.272 295.95 435.792C296.921 436.295 297.649 437.075 298.134 438.132C298.637 439.172 298.888 440.515 298.888 442.162C298.888 443.791 298.637 445.135 298.134 446.192C297.649 447.249 296.921 448.038 295.95 448.558C294.979 449.061 293.766 449.312 292.31 449.312ZM292.31 447.076C293.177 447.076 293.887 446.911 294.442 446.582C294.997 446.235 295.404 445.715 295.664 445.022C295.941 444.329 296.08 443.453 296.08 442.396V441.928C296.08 440.871 295.941 439.995 295.664 439.302C295.404 438.609 294.997 438.097 294.442 437.768C293.887 437.421 293.177 437.248 292.31 437.248C291.461 437.248 290.759 437.421 290.204 437.768C289.649 438.097 289.233 438.609 288.956 439.302C288.696 439.995 288.566 440.871 288.566 441.928V442.396C288.566 443.453 288.696 444.329 288.956 445.022C289.233 445.715 289.649 446.235 290.204 446.582C290.759 446.911 291.461 447.076 292.31 447.076ZM301.644 449V435.324H303.88L304.114 437.534H304.27C304.426 437.101 304.625 436.693 304.868 436.312C305.128 435.931 305.457 435.619 305.856 435.376C306.272 435.133 306.775 435.012 307.364 435.012C307.641 435.012 307.884 435.038 308.092 435.09C308.317 435.142 308.491 435.185 308.612 435.22V437.768H307.702C307.147 437.768 306.653 437.855 306.22 438.028C305.804 438.201 305.449 438.461 305.154 438.808C304.877 439.137 304.669 439.545 304.53 440.03C304.409 440.515 304.348 441.061 304.348 441.668V449H301.644Z" fill="white"/>

  <defs>
    <filter id="filter0_d_18_9" x="0" y="0" width="1242.83" height="587" filterUnits="userSpaceOnUse" color-interpolation-filters="sRGB">
      <feFlood flood-opacity="0" result="BackgroundImageFix"/>
      <feColorMatrix in="SourceAlpha" type="matrix" values="0 0 0 0 0 0 0 0 0 0 0 0 0 0 0 0 0 0 127 0" result="hardAlpha"/>
      <feOffset dy="4"/>
      <feGaussianBlur stdDeviation="2"/>
      <feComposite in2="hardAlpha" operator="out"/>
      <feColorMatrix type="matrix" values="0 0 0 0 0 0 0 0 0 0 0 0 0 0 0 0 0 0 0.25 0"/>
      <feBlend mode="normal" in2="BackgroundImageFix" result="effect1_dropShadow_18_9"/>
      <feBlend mode="normal" in="SourceGraphic" in2="effect1_dropShadow_18_9" result="shape"/>
    </filter>
    <filter id="filter1_d_18_9" x="185.442" y="199" width="861.265" height="189" filterUnits="userSpaceOnUse" color-interpolation-filters="sRGB">
      <feFlood flood-opacity="0" result="BackgroundImageFix"/>
      <feColorMatrix in="SourceAlpha" type="matrix" values="0 0 0 0 0 0 0 0 0 0 0 0 0 0 0 0 0 0 127 0" result="hardAlpha"/>
      <feOffset dy="4"/>
      <feGaussianBlur stdDeviation="2"/>
      <feComposite in2="hardAlpha" operator="out"/>
      <feColorMatrix type="matrix" values="0 0 0 0 0 0 0 0 0 0 0 0 0 0 0 0 0 0 0.25 0"/>
      <feBlend mode="normal" in2="BackgroundImageFix" result="effect1_dropShadow_18_9"/>
      <feBlend mode="normal" in="SourceGraphic" in2="effect1_dropShadow_18_9" result="shape"/>
    </filter>
    <filter id="filter2_i_18_9" x="412.244" y="230" width="417.444" height="122" filterUnits="userSpaceOnUse" color-interpolation-filters="sRGB">
      <feFlood flood-opacity="0" result="BackgroundImageFix"/>
      <feBlend mode="normal" in="SourceGraphic" in2="BackgroundImageFix" result="shape"/>
      <feColorMatrix in="SourceAlpha" type="matrix" values="0 0 0 0 0 0 0 0 0 0 0 0 0 0 0 0 0 0 127 0" result="hardAlpha"/>
      <feMorphology radius="17" operator="erode" in="SourceAlpha" result="effect1_innerShadow_18_9"/>
      <feOffset dx="2" dy="2"/>
      <feGaussianBlur stdDeviation="3"/>
      <feComposite in2="hardAlpha" operator="arithmetic" k2="-1" k3="1"/>
      <feColorMatrix type="matrix" values="0 0 0 0 0 0 0 0 0 0 0 0 0 0 0 0 0 0 0.25 0"/>
      <feBlend mode="normal" in2="shape" result="effect1_innerShadow_18_9"/>
    </filter>
    <filter id="filter3_i_18_9" x="477.85" y="271" width="239.052" height="49.6818" filterUnits="userSpaceOnUse" color-interpolation-filters="sRGB">
      <feFlood flood-opacity="0" result="BackgroundImageFix"/>
      <feBlend mode="normal" in="SourceGraphic" in2="BackgroundImageFix" result="shape"/>
      <feColorMatrix in="SourceAlpha" type="matrix" values="0 0 0 0 0 0 0 0 0 0 0 0 0 0 0 0 0 0 127 0" result="hardAlpha"/>
      <feOffset dy="4"/>
      <feGaussianBlur stdDeviation="2"/>
      <feComposite in2="hardAlpha" operator="arithmetic" k2="-1" k3="1"/>
      <feColorMatrix type="matrix" values="0 0 0 0 0 0 0 0 0 0 0 0 0 0 0 0 0 0 0.25 0"/>
      <feBlend mode="normal" in2="shape" result="effect1_innerShadow_18_9"/>
    </filter>
  </defs>
</svg>